PathFileType  4	(X/Y/Z) C:\Users\wagnerel85475\Documents\Thesis\opencap-core\Data\3375ffbc-daeb-4a43-b4f7-ac9899cd4c71\MarkerData\PreAugmentation
DataRate	CameraRate	NumFrames	NumMarkers	Units	OrigDataRate	OrigDataStartFrame	OrigNumFrames
60.0	60.0	14	20	m	60.0	673	897
Frame#	Time	Neck			RShoulder			RElbow			RWrist			LShoulder			LElbow			LWrist			midHip			RHip			RKnee			RAnkle			LHip			LKnee			LAnkle			LBigToe			LSmallToe			LHeel			RBigToe			RSmallToe			RHeel			
		X1	Y1	Z1	X2	Y2	Z2	X3	Y3	Z3	X4	Y4	Z4	X5	Y5	Z5	X6	Y6	Z6	X7	Y7	Z7	X8	Y8	Z8	X9	Y9	Z9	X10	Y10	Z10	X11	Y11	Z11	X12	Y12	Z12	X13	Y13	Z13	X14	Y14	Z14	X15	Y15	Z15	X16	Y16	Z16	X17	Y17	Z17	X18	Y18	Z18	X19	Y19	Z19	X20	Y20	Z20	

673	11.2000000	0.6277100	1.3632100	-0.1128500	0.6118700	1.3628600	0.0537000	0.8710800	1.1817000	0.1389800	1.0813600	1.2409100	0.0722400	0.5902100	1.3637700	-0.2908100	0.9348200	1.2301400	-0.3110000	1.2320700	1.2720200	-0.1658100	0.7232600	0.8311700	-0.1007800	0.6997200	0.8318800	0.0142300	0.6350200	0.3288700	0.0346700	0.5715800	-0.1905200	0.0889800	0.7252500	0.8325300	-0.2186000	0.6141600	0.3532900	-0.2189100	0.5992500	-0.1564200	-0.2780700	0.8082000	-0.2211100	-0.3425200	0.7490400	-0.2310400	-0.3865100	0.5307800	-0.2264800	-0.2567800	0.7827200	-0.2289500	0.1858400	0.7324900	-0.2220900	0.2131100	0.5402800	-0.2379200	0.0797700
674	11.2166667	0.6167400	1.3606400	-0.1163100	0.6025100	1.3631800	0.0503600	0.8725100	1.1819800	0.1394600	1.0735900	1.2323500	0.0702800	0.5883600	1.3643100	-0.2906800	0.9335000	1.2298900	-0.3105500	1.2333500	1.2751400	-0.1650600	0.7247400	0.8344700	-0.1004500	0.7026600	0.8353800	0.0144000	0.6342600	0.3323600	0.0359800	0.5713400	-0.1907000	0.0889200	0.7264500	0.8353200	-0.2186300	0.6150500	0.3480400	-0.2194500	0.5996100	-0.1563500	-0.2780700	0.8071100	-0.2215900	-0.3426800	0.7485000	-0.2311500	-0.3864600	0.5326700	-0.2295900	-0.2559900	0.7825100	-0.2288800	0.1859800	0.7326400	-0.2221800	0.2134400	0.5406000	-0.2356100	0.0794500
675	11.2333333	0.6179200	1.3633200	-0.1165400	0.5929700	1.3633500	0.0545800	0.8443600	1.1851400	0.1366400	1.0770700	1.2294400	0.0763200	0.5901200	1.3669700	-0.2908100	0.9344300	1.2302600	-0.3109400	1.2394100	1.2754100	-0.1623200	0.7326700	0.8323000	-0.0972200	0.7099900	0.8364600	0.0174000	0.6436200	0.3350900	0.0306300	0.5716200	-0.1903800	0.0889700	0.7256600	0.8357700	-0.2187800	0.6142800	0.3453300	-0.2197100	0.5993200	-0.1564700	-0.2780600	0.8081100	-0.2211500	-0.3426100	0.7490800	-0.2310200	-0.3865400	0.5317900	-0.2299600	-0.2561400	0.7826700	-0.2290300	0.1858100	0.7325100	-0.2221600	0.2130900	0.5404200	-0.2350600	0.0791400
676	11.2500000	0.6165000	1.3635700	-0.1164300	0.5938100	1.3634500	0.0546500	0.8460800	1.1899400	0.1373200	1.0645500	1.2301100	0.0760500	0.5883600	1.3644900	-0.2908700	0.9330900	1.2301400	-0.3107300	1.2263300	1.2790700	-0.1686000	0.7341500	0.8355000	-0.0968700	0.7124800	0.8365900	0.0178100	0.6436300	0.3302700	0.0309600	0.5719000	-0.1872700	0.0882500	0.7267100	0.8353600	-0.2186300	0.6152100	0.3480000	-0.2194600	0.5991700	-0.1603900	-0.2786000	0.8071100	-0.2216600	-0.3427200	0.7484800	-0.2312400	-0.3864900	0.5326300	-0.2296600	-0.2559600	0.7824800	-0.2288800	0.1859400	0.7228400	-0.2219900	0.2113100	0.5406100	-0.2355500	0.0794300
677	11.2666667	0.6180000	1.3631700	-0.1165900	0.6015200	1.3631300	0.0503000	0.8542100	1.1850100	0.1323000	1.0651300	1.2260500	0.0841900	0.5901000	1.3638300	-0.2910100	0.9345800	1.2339700	-0.3110300	1.2176200	1.2756800	-0.1729900	0.7331300	0.8354900	-0.0975200	0.7101200	0.8363000	0.0172700	0.6435600	0.3277200	0.0307400	0.5711700	-0.1866400	0.0895700	0.7257700	0.8357000	-0.2188100	0.6141900	0.3492400	-0.2192800	0.5989500	-0.1603700	-0.2786100	0.7999900	-0.2240100	-0.3463300	0.7490000	-0.2310900	-0.3866000	0.5410700	-0.2266900	-0.2523600	0.7825500	-0.2290400	0.1858300	0.7226300	-0.2220100	0.2110000	0.5403900	-0.2350200	0.0791100
678	11.2833333	0.6164600	1.3636600	-0.1164800	0.6022500	1.3664400	0.0502700	0.8667300	1.1823400	0.1358000	1.0507600	1.2263500	0.0855700	0.5884500	1.3644800	-0.2908300	0.9333000	1.2377300	-0.3106300	1.2114200	1.2789300	-0.1758300	0.7338900	0.8321600	-0.0967400	0.7206400	0.8373100	0.0135600	0.6436200	0.3300600	0.0309600	0.5713800	-0.1906500	0.0889000	0.7267600	0.8352400	-0.2187100	0.6152600	0.3438800	-0.2198300	0.5991700	-0.1603400	-0.2786000	0.7989000	-0.2245500	-0.3465000	0.7483600	-0.2312500	-0.3865100	0.5418100	-0.2263100	-0.2521800	0.7824400	-0.2289000	0.1859500	0.7227900	-0.2220100	0.2113200	0.5406700	-0.2356100	0.0794500
679	11.3000000	0.6181000	1.3633800	-0.1164600	0.6118600	1.3659600	0.0537400	0.8632500	1.1889100	0.1350800	1.0501500	1.2250800	0.0942400	0.5902400	1.3669400	-0.2908400	0.9343800	1.2382700	-0.3109500	1.2179300	1.2786700	-0.1730000	0.7328100	0.8321600	-0.0973600	0.7097700	0.8329400	0.0175000	0.6435700	0.3350500	0.0306700	0.5716400	-0.1904700	0.0889600	0.7256600	0.8325100	-0.2187000	0.6141600	0.3492900	-0.2193300	0.5988600	-0.1603500	-0.2786300	0.8080600	-0.2211700	-0.3425800	0.7490200	-0.2310400	-0.3865600	0.5316200	-0.2296800	-0.2561900	0.7824600	-0.2251100	0.1864100	0.7225300	-0.2220500	0.2109500	0.5405400	-0.2350400	0.0791800
680	11.3166667	0.6165500	1.3638400	-0.1162400	0.6042600	1.3662800	0.0582300	0.8655900	1.1853900	0.1360600	1.0353800	1.2252900	0.0959100	0.5886300	1.3676100	-0.2907300	0.9330700	1.2413100	-0.3104800	1.2187900	1.2794200	-0.1723500	0.7249900	0.8345500	-0.1005000	0.7122200	0.8364500	0.0176900	0.6431800	0.3420500	0.0314300	0.5719500	-0.1873500	0.0882400	0.7267100	0.8353300	-0.2187200	0.6151300	0.3439200	-0.2198800	0.5990400	-0.1602800	-0.2786100	0.7989600	-0.2244900	-0.3465300	0.7484800	-0.2311700	-0.3864800	0.5323100	-0.2293700	-0.2560100	0.7824000	-0.2249400	0.1865600	0.7227500	-0.2220000	0.2112900	0.5407700	-0.2355300	0.0794700
681	11.3333333	0.6092500	1.3665500	-0.1121100	0.6037800	1.3659800	0.0582400	0.8750400	1.1808000	0.1383800	1.0375600	1.2263500	0.1038600	0.5901000	1.3670200	-0.2907900	0.9425600	1.2417600	-0.3069600	1.2252600	1.2854200	-0.1694100	0.7235600	0.8311800	-0.1009400	0.6999300	0.8317900	0.0140300	0.6436400	0.3351100	0.0306800	0.5722700	-0.1871500	0.0883200	0.7256300	0.8325400	-0.2186900	0.6233700	0.3472300	-0.2237600	0.5991900	-0.1565200	-0.2781000	0.7999800	-0.2239700	-0.3463200	0.7489900	-0.2310400	-0.3865800	0.5316200	-0.2297800	-0.2561600	0.7825100	-0.2250800	0.1864700	0.7225700	-0.2220200	0.2109800	0.5405600	-0.2350100	0.0791600
682	11.3500000	0.6263300	1.3667700	-0.1126200	0.6235100	1.3689700	0.0573100	0.8732100	1.1856200	0.1316400	1.0242100	1.2278200	0.1045500	0.5883100	1.3716900	-0.2907700	0.9415700	1.2411600	-0.3065500	1.2186200	1.2857200	-0.1722500	0.7246000	0.8312200	-0.1003200	0.7027300	0.8281500	0.0143100	0.6522800	0.3397100	0.0265400	0.5719400	-0.1872900	0.0882300	0.7267200	0.8352900	-0.2187300	0.6243100	0.3459400	-0.2239400	0.5990300	-0.1602300	-0.2786000	0.8069000	-0.2217100	-0.3427100	0.7484500	-0.2312000	-0.3864700	0.5323400	-0.2295000	-0.2560000	0.7824500	-0.2249200	0.1865300	0.7227700	-0.2219500	0.2112700	0.5407600	-0.2355200	0.0794600
683	11.3666667	0.6185900	1.3694800	-0.1163100	0.6126300	1.3689700	0.0539000	0.8531700	1.1908500	0.1317400	1.0239700	1.2195000	0.1121200	0.5903100	1.3742600	-0.2908500	0.9508200	1.2415400	-0.3029400	1.2254100	1.2851700	-0.1693000	0.7234400	0.8312900	-0.1009300	0.7001600	0.8350900	0.0138100	0.6433300	0.3469600	0.0311300	0.5722800	-0.1870400	0.0883300	0.7257800	0.8358200	-0.2188400	0.6237500	0.3431700	-0.2242300	0.5988000	-0.1603700	-0.2786400	0.8000700	-0.2269800	-0.3456000	0.7490100	-0.2310500	-0.3865900	0.5316300	-0.2296800	-0.2561500	0.7825000	-0.2250900	0.1864300	0.7225900	-0.2220100	0.2109400	0.5406100	-0.2349600	0.0791200
684	11.3833333	0.6264300	1.3739300	-0.1127100	0.6235000	1.3691200	0.0573000	0.8527300	1.1880300	0.1329500	1.0138000	1.2209000	0.1110400	0.5980500	1.3748100	-0.2868600	0.9499100	1.2410300	-0.3025900	1.2332000	1.2855700	-0.1651100	0.7244500	0.8346800	-0.1004800	0.7021200	0.8352800	0.0143800	0.6444100	0.3258400	0.0306400	0.5720300	-0.1871500	0.0882300	0.7263700	0.8354500	-0.2186900	0.6243400	0.3458100	-0.2239300	0.5994900	-0.1563800	-0.2780800	0.8068600	-0.2216700	-0.3427000	0.7485700	-0.2275600	-0.3858800	0.5323500	-0.2293800	-0.2559800	0.7825300	-0.2248600	0.1865300	0.7228200	-0.2219500	0.2112500	0.5414000	-0.2326700	0.0787400
685	11.4000000	0.6372800	1.3692100	-0.1168800	0.6339300	1.3717100	0.0607000	0.8415200	1.1972400	0.1365800	1.0215200	1.2028600	0.1177200	0.6089000	1.3739800	-0.2908400	0.9593600	1.2416300	-0.2988600	1.2399700	1.2846500	-0.1622500	0.7151800	0.8335900	-0.0971500	0.7005000	0.8310200	0.0136300	0.6531700	0.3298300	0.0340200	0.5722300	-0.1869700	0.0883800	0.7252100	0.8358400	-0.2187900	0.6430500	0.3476700	-0.2325600	0.5992000	-0.1564500	-0.2781200	0.8001100	-0.2269900	-0.3456300	0.7491600	-0.2274500	-0.3859900	0.5315900	-0.2297700	-0.2561200	0.7827500	-0.2249600	0.1864100	0.7226500	-0.2219100	0.2109700	0.5405800	-0.2349600	0.0791300
686	11.4166667	0.6358200	1.3738500	-0.1168100	0.6448200	1.3718700	0.0641100	0.8426800	1.1982200	0.1373800	1.0191100	1.2225900	0.1153500	0.6074900	1.3747300	-0.2907200	0.9661100	1.2415600	-0.2946900	1.2406000	1.2852000	-0.1616700	0.7160000	0.8336400	-0.0963900	0.7026800	0.8314700	0.0143400	0.6437700	0.3241600	0.0397100	0.5713600	-0.1906800	0.0889000	0.7258600	0.8353500	-0.2186300	0.6443700	0.3493400	-0.2331800	0.5990700	-0.1601700	-0.2786800	0.7991500	-0.2274900	-0.3458800	0.7487300	-0.2275800	-0.3859100	0.5322000	-0.2293600	-0.2560700	0.7824400	-0.2218400	0.1858400	0.7227600	-0.2219000	0.2112200	0.5408100	-0.2355700	0.0794400
